<?xml version="1.0" standalone="no"?>
<!DOCTYPE svg PUBLIC "-//W3C//DTD SVG 20010904//EN"
 "http://www.w3.org/TR/2001/REC-SVG-20010904/DTD/svg10.dtd">
<svg version="1.0" xmlns="http://www.w3.org/2000/svg"
 width="3334.000000pt" height="3334.000000pt" viewBox="0 0 3334.000000 3334.000000"
 preserveAspectRatio="xMidYMid meet">

<g transform="translate(0.000000,3334.000000) scale(0.100000,-0.100000)"
fill="#000000" stroke="none">
<path d="M14788 27711 c-155 -50 -270 -174 -313 -338 -12 -44 -15 -123 -15
-355 l0 -298 -523 0 c-567 0 -581 -1 -689 -56 -67 -34 -158 -125 -192 -192
-14 -28 -33 -77 -41 -109 -13 -51 -15 -1212 -15 -9940 l0 -9883 -585 0 -585 0
0 1148 c0 725 -4 1171 -10 1212 -26 166 -147 312 -308 374 -57 21 -58 21
-1372 26 l-1315 5 -54 23 c-144 61 -249 178 -285 317 -20 74 -21 251 -2 320
30 115 101 213 200 277 121 78 6 72 1476 78 l1315 5 68 32 c38 18 87 47 110
65 59 47 124 141 149 216 21 64 22 85 26 490 4 465 -1 529 -48 630 -59 127
-200 236 -339 262 -34 6 -518 10 -1316 10 -1232 0 -1264 0 -1326 20 -81 25
-128 54 -194 119 -98 97 -135 198 -135 371 0 58 6 128 14 155 40 150 145 266
295 324 l66 26 1315 5 c1271 5 1317 6 1360 24 141 61 230 153 282 292 21 57
22 76 26 478 4 468 -2 545 -48 644 -52 112 -168 211 -295 253 -32 11 -303 15
-1350 19 l-1310 5 -58 23 c-118 48 -222 153 -268 270 -34 85 -39 285 -10 380
46 152 148 258 302 314 l64 23 1310 5 c1219 5 1313 6 1354 23 134 53 232 155
283 293 20 55 22 82 26 367 2 190 0 338 -7 388 -25 186 -149 336 -322 390 -59
18 -126 19 -2049 19 -1923 0 -1990 -1 -2049 -19 -167 -52 -295 -203 -321 -377
-6 -45 -10 -1846 -10 -5196 l0 -5127 -582 -3 -583 -3 -60 -28 c-133 -63 -225
-164 -265 -294 -81 -262 92 -542 364 -592 43 -8 3108 -11 10725 -11 9226 0
10675 2 10734 15 188 40 340 199 366 385 31 228 -98 436 -318 510 -58 19 -83
20 -626 20 l-565 0 0 7599 c0 5126 -3 7616 -10 7652 -33 172 -171 319 -344
365 -42 11 -357 14 -1821 14 -1938 0 -1825 3 -1939 -58 -76 -41 -149 -119
-193 -208 l-38 -78 0 -440 0 -441 33 -69 c18 -39 48 -89 67 -112 47 -57 143
-120 222 -144 64 -20 92 -20 1212 -20 1244 0 1221 1 1332 -56 70 -35 167 -134
201 -205 38 -79 47 -128 48 -256 0 -122 -17 -197 -63 -275 -32 -55 -131 -149
-185 -177 -103 -52 -68 -51 -1307 -51 -1252 0 -1202 2 -1317 -56 -66 -34 -158
-120 -191 -182 -57 -106 -58 -116 -55 -643 l3 -484 28 -60 c63 -133 164 -225
294 -265 64 -20 92 -20 1213 -20 738 0 1166 -4 1201 -10 120 -23 242 -105 308
-208 53 -84 71 -157 71 -291 0 -185 -37 -280 -149 -384 -63 -58 -138 -99 -212
-116 -28 -7 -454 -11 -1191 -11 -804 0 -1163 -3 -1200 -11 -82 -17 -154 -56
-222 -119 -68 -64 -106 -125 -130 -211 -15 -50 -16 -118 -14 -541 l3 -484 38
-78 c44 -88 117 -166 194 -208 110 -60 61 -58 1318 -58 988 0 1159 -2 1208
-15 163 -42 290 -161 338 -316 14 -45 19 -91 19 -179 0 -135 -18 -208 -69
-289 -66 -103 -184 -185 -299 -210 -37 -8 -389 -11 -1200 -11 -755 0 -1162 -4
-1192 -11 -132 -30 -254 -129 -318 -257 l-37 -76 0 -511 0 -511 37 -76 c45
-89 124 -172 202 -212 115 -58 62 -56 1308 -56 805 0 1163 -3 1200 -11 160
-34 300 -162 349 -320 27 -85 27 -273 0 -358 -50 -161 -194 -289 -360 -321
-35 -6 -461 -10 -1195 -10 -1247 0 -1199 2 -1309 -58 -77 -42 -150 -120 -194
-208 l-38 -78 -3 -2253 -2 -2253 -590 0 -590 0 0 9888 c0 6626 -4 9901 -11
9931 -27 117 -123 244 -227 299 -115 61 -124 62 -699 62 l-523 0 0 303 c0 240
-3 315 -15 362 -41 154 -159 278 -314 325 -62 20 -103 20 -2080 19 -1922 0
-2019 -1 -2073 -18z m4334 -2849 c118 -48 222 -152 270 -269 20 -52 23 -74 23
-208 0 -133 -3 -156 -23 -207 -67 -167 -204 -274 -382 -299 -38 -6 -939 -8
-2190 -7 l-2125 3 -63 23 c-81 29 -135 63 -192 122 -91 94 -130 202 -130 365
0 161 34 255 128 356 62 68 117 103 200 130 55 17 150 18 2242 16 l2185 -2 57
-23z m13 -2735 c88 -41 157 -98 204 -167 60 -91 81 -169 81 -305 0 -136 -21
-214 -81 -304 -50 -75 -104 -120 -195 -163 l-69 -33 -2211 0 -2210 0 -78 38
c-128 64 -216 170 -251 302 -17 68 -20 237 -4 304 17 75 60 154 118 215 64 66
117 101 199 127 55 17 150 18 2247 16 l2190 -2 60 -28z m8 -2734 c129 -61 217
-160 257 -290 28 -91 28 -265 0 -356 -40 -130 -132 -231 -265 -294 l-60 -28
-2211 0 -2210 0 -76 37 c-128 64 -227 186 -257 318 -16 68 -13 237 4 305 40
152 155 273 310 327 47 16 183 17 2245 15 l2195 -2 68 -32z m1 -2731 c91 -43
145 -88 195 -163 60 -90 81 -168 81 -304 0 -136 -21 -214 -81 -305 -47 -69
-116 -126 -204 -167 l-60 -28 -2185 -3 c-2377 -2 -2225 -6 -2334 50 -102 52
-208 191 -235 308 -16 68 -13 237 4 305 40 153 154 273 310 327 47 16 183 17
2245 15 l2195 -2 69 -33z m-126 -2692 c177 -29 307 -133 374 -298 20 -51 23
-74 23 -207 0 -134 -3 -156 -23 -208 -48 -117 -152 -221 -270 -269 l-57 -23
-2180 -3 c-1971 -2 -2185 -1 -2235 14 -85 24 -146 62 -209 130 -97 103 -131
197 -131 359 0 168 39 273 139 373 62 62 167 117 251 131 79 13 4238 14 4318
1z m-2815 -3645 c32 -8 81 -27 109 -41 67 -34 158 -125 192 -192 59 -116 56
-33 56 -1652 0 -1625 3 -1541 -58 -1654 -37 -69 -127 -155 -196 -189 -117 -57
-132 -58 -910 -55 -710 4 -711 4 -771 26 -128 48 -236 153 -287 279 l-23 58
-3 1505 c-2 1058 1 1521 9 1558 35 170 169 310 342 357 80 21 1458 22 1540 0z
m2849 4 c168 -35 319 -184 357 -350 7 -29 11 -567 11 -1539 0 -1216 -3 -1504
-14 -1545 -40 -150 -145 -266 -295 -324 l-66 -26 -705 -3 c-497 -2 -725 0
-773 9 -169 28 -307 143 -371 308 l-21 56 -3 1495 c-3 1662 -6 1579 64 1696
63 108 166 186 287 219 68 18 1444 22 1529 4z"/>
</g>
</svg>
