<?xml version="1.0" standalone="no"?>
<!DOCTYPE svg PUBLIC "-//W3C//DTD SVG 20010904//EN"
 "http://www.w3.org/TR/2001/REC-SVG-20010904/DTD/svg10.dtd">
<svg version="1.0" xmlns="http://www.w3.org/2000/svg"
 width="3334.000000pt" height="3334.000000pt" viewBox="0 0 3334.000000 3334.000000"
 preserveAspectRatio="xMidYMid meet">

<g transform="translate(0.000000,3334.000000) scale(0.100000,-0.100000)"
fill="#000000" stroke="none">
<path d="M13205 29174 c-626 -84 -1162 -472 -1435 -1038 -190 -395 -235 -836
-129 -1261 95 -376 313 -722 610 -970 638 -532 1538 -580 2230 -117 403 270
683 686 787 1171 24 117 26 144 27 366 0 212 -3 253 -23 354 -120 590 -495
1074 -1032 1330 -324 154 -689 212 -1035 165z"/>
<path d="M13571 24865 c-200 -44 -365 -136 -499 -279 -33 -36 -75 -86 -92
-111 -43 -62 -114 -216 -133 -290 -23 -85 -37 -227 -31 -299 7 -69 1023 -5929
1053 -6073 73 -343 334 -616 686 -715 l80 -23 3597 -3 3597 -2 30 -98 c17 -53
395 -1292 840 -2752 446 -1460 822 -2684 837 -2720 79 -200 251 -384 449 -482
155 -78 275 -103 458 -95 152 6 257 32 385 96 134 67 268 184 352 306 43 62
114 216 133 290 38 141 40 329 6 460 -16 60 -1895 6213 -1914 6265 -25 71 -92
188 -146 256 -125 157 -290 264 -504 328 l-70 21 -3552 2 -3553 3 -5 23 c-3
12 -64 360 -135 772 -71 413 -132 760 -135 772 l-5 23 1972 2 1973 3 74 23
c345 107 583 346 672 677 33 119 33 346 1 464 -94 344 -345 590 -704 688 -58
16 -217 18 -2188 20 l-2125 3 -144 828 c-78 455 -151 864 -162 910 -83 361
-385 646 -753 711 -82 15 -268 12 -345 -4z"/>
<path d="M10701 22865 c-203 -46 -307 -105 -543 -307 -1485 -1274 -2434 -3030
-2677 -4953 -71 -558 -80 -1212 -25 -1770 180 -1821 920 -3434 2159 -4704
1364 -1398 3156 -2201 5178 -2322 255 -15 869 -7 1107 15 656 60 1206 174
1810 376 1008 335 1867 831 2705 1559 262 228 737 726 906 951 67 88 122 198
155 305 26 83 28 103 28 260 0 156 -2 177 -27 258 -100 325 -349 570 -663 652
-179 46 -356 41 -531 -17 -194 -64 -320 -157 -496 -368 -152 -182 -550 -581
-722 -724 -1107 -921 -2409 -1396 -3825 -1396 -2487 0 -4707 1542 -5573 3870
-322 865 -435 1826 -326 2765 172 1485 902 2848 2049 3823 80 68 168 150 196
182 352 401 301 1022 -111 1350 -91 72 -226 142 -341 175 -112 34 -329 44
-433 20z"/>
<path d="M26385 9413 c-16 -2 -4443 -690 -9837 -1529 -6714 -1043 -9824 -1530
-9861 -1544 -151 -57 -247 -199 -247 -368 0 -218 142 -378 358 -403 46 -6
4067 -8 9887 -7 l9810 3 58 22 c115 43 203 130 250 243 l22 55 0 1605 0 1605
-22 55 c-70 171 -251 285 -418 263z"/>
</g>
</svg>
