<?xml version="1.0" standalone="no"?>
<!DOCTYPE svg PUBLIC "-//W3C//DTD SVG 20010904//EN"
 "http://www.w3.org/TR/2001/REC-SVG-20010904/DTD/svg10.dtd">
<svg version="1.0" xmlns="http://www.w3.org/2000/svg"
 width="3334.000000pt" height="3334.000000pt" viewBox="0 0 3334.000000 3334.000000"
 preserveAspectRatio="xMidYMid meet">

<g transform="translate(0.000000,3334.000000) scale(0.100000,-0.100000)" fill="currentColor" stroke="currentColor">
<path d="M27885 24289 c-160 -20 -344 -90 -488 -186 -155 -104 -320 -299 -402
-475 -39 -85 -80 -219 -95 -311 -6 -41 -10 -1556 -10 -4409 l0 -4348 -10862
-3 c-10007 -2 -10869 -4 -10934 -19 -423 -98 -740 -380 -869 -773 -57 -175
-55 -110 -55 -2002 0 -1185 3 -1766 11 -1819 22 -161 88 -332 181 -474 23 -36
83 -107 133 -159 158 -164 367 -281 585 -328 102 -21 344 -24 435 -5 498 107
864 498 924 987 7 61 11 453 11 1203 l0 1112 10220 0 10220 0 0 -1154 c0 -988
2 -1165 15 -1233 91 -479 486 -855 969 -922 347 -48 702 74 956 329 140 141
242 317 297 516 l28 99 0 6715 0 6715 -28 99 c-55 199 -157 375 -297 516 -249
250 -599 372 -945 329z"/>
<path d="M25020 20563 c-14 -2 -641 -101 -1395 -219 -961 -151 -1392 -223
-1443 -240 -303 -101 -531 -331 -625 -629 -75 -240 -57 -483 53 -710 132 -273
367 -459 670 -531 70 -17 174 -18 1445 -21 873 -3 1417 0 1500 6 170 13 301
47 439 114 312 151 542 429 632 762 21 79 27 130 31 247 6 166 -6 271 -44 393
-157 500 -619 840 -1132 834 -58 -1 -117 -4 -131 -6z"/>
<path d="M5285 17679 c-411 -43 -784 -299 -975 -669 -90 -176 -129 -325 -137
-525 -24 -616 423 -1163 1037 -1269 86 -15 930 -16 10039 -16 8897 0 9956 2
10041 15 483 79 876 439 1007 925 35 129 44 380 18 515 -82 440 -387 803 -803
955 -106 39 -187 57 -311 69 -126 13 -19793 13 -19916 0z"/>
</g>
</svg>
