<?xml version="1.0" standalone="no"?>
<!DOCTYPE svg PUBLIC "-//W3C//DTD SVG 20010904//EN"
 "http://www.w3.org/TR/2001/REC-SVG-20010904/DTD/svg10.dtd">
<svg version="1.0" xmlns="http://www.w3.org/2000/svg"
 width="3334.000000pt" height="3334.000000pt" viewBox="0 0 3334.000000 3334.000000"
 preserveAspectRatio="xMidYMid meet">

<g transform="translate(0.000000,3334.000000) scale(0.100000,-0.100000)"
fill="#000000" stroke="none">
<path d="M11015 24273 c-429 -21 -791 -113 -1145 -289 -318 -158 -589 -366
-862 -661 -55 -59 -917 -1124 -1915 -2365 l-1816 -2258 -373 0 c-275 0 -403
-4 -488 -15 -412 -54 -815 -250 -1112 -542 -301 -295 -473 -649 -514 -1058 -8
-78 -10 -717 -8 -2190 l4 -2080 22 -97 c95 -413 333 -749 680 -960 140 -84
281 -140 472 -184 67 -16 161 -18 858 -23 l783 -6 48 -130 c315 -857 946
-1562 1761 -1968 388 -194 757 -303 1215 -359 134 -17 611 -16 745 0 704 87
1268 316 1822 742 163 125 484 446 608 608 246 319 437 665 555 1005 l38 107
3616 0 3616 0 49 -135 c527 -1439 1917 -2385 3441 -2342 1135 33 2154 579
2821 1514 180 252 372 629 461 905 l18 57 1440 4 c1431 3 1441 3 1533 24 298
69 524 193 732 402 174 174 283 348 355 564 76 228 70 48 70 2192 0 2144 6
1964 -70 2192 -74 221 -177 386 -355 563 -205 206 -416 326 -685 391 -44 10
-1126 156 -2405 324 -1279 168 -2335 308 -2347 312 -11 5 -846 944 -1853 2088
-1008 1144 -1912 2170 -2009 2280 -409 461 -721 753 -1021 954 -355 238 -649
352 -1080 418 -108 16 -343 17 -3880 18 -2071 1 -3792 0 -3825 -2z m2105
-3848 l0 -1745 -2335 0 c-1284 0 -2335 2 -2335 5 0 3 460 713 1023 1578 l1022
1572 105 105 c140 139 237 195 382 219 29 5 522 9 1096 10 l1042 1 0 -1745z
m5424 1712 c164 -77 373 -272 764 -717 80 -91 661 -740 1291 -1443 630 -703
1148 -1283 1149 -1288 2 -5 -1265 -9 -3197 -9 l-3201 0 0 1745 0 1745 1568 -2
1567 -3 59 -28z m-9212 -7846 c152 -33 272 -76 423 -151 396 -196 702 -550
845 -977 59 -177 82 -323 82 -528 0 -350 -92 -656 -281 -936 -265 -394 -661
-650 -1126 -729 -114 -19 -154 -22 -325 -17 -273 7 -450 48 -678 157 -481 230
-818 662 -933 1200 -20 91 -23 134 -23 325 0 191 3 234 23 325 50 236 150 468
279 650 86 122 281 317 399 400 225 158 493 265 748 299 122 17 456 6 567 -18z
m14020 0 c688 -142 1207 -675 1335 -1371 27 -147 24 -449 -5 -598 -106 -529
-433 -961 -907 -1197 -245 -122 -418 -164 -705 -172 -171 -5 -211 -2 -325 17
-570 97 -1048 471 -1276 999 -272 633 -128 1375 362 1862 270 268 586 422 994
483 17 2 120 3 230 1 151 -3 224 -8 297 -24z"/>
</g>
</svg>
