<?xml version="1.0" standalone="no"?>
<!DOCTYPE svg PUBLIC "-//W3C//DTD SVG 20010904//EN"
 "http://www.w3.org/TR/2001/REC-SVG-20010904/DTD/svg10.dtd">
<svg version="1.0" xmlns="http://www.w3.org/2000/svg"
 width="3334.000000pt" height="3334.000000pt" viewBox="0 0 3334.000000 3334.000000"
 preserveAspectRatio="xMidYMid meet">

<g transform="translate(0.000000,3334.000000) scale(0.100000,-0.100000)"
fill="#000000" stroke="none">
<path d="M4662 26510 c-117 -31 -206 -84 -298 -175 -93 -93 -154 -202 -179
-320 -13 -61 -15 -1239 -15 -9346 0 -9216 0 -9276 20 -9353 61 -238 242 -420
480 -481 84 -22 226 -22 310 0 39 10 1242 569 3000 1393 l2935 1377 8855 5
8855 5 70 23 c175 59 320 181 393 332 23 47 49 112 57 145 13 52 15 795 15
6560 0 5749 -2 6508 -15 6560 -8 33 -34 98 -58 145 -80 160 -232 282 -422 337
-57 17 -500 18 -8910 23 l-8850 5 -2905 1364 c-1598 750 -2936 1375 -2975
1389 -97 35 -259 41 -363 12z m3268 -3439 l1855 -870 0 -5528 0 -5528 -1860
-872 c-1023 -480 -1863 -873 -1867 -873 -5 0 -8 3274 -8 7276 0 5817 3 7275
13 7271 6 -3 847 -397 1867 -876z m19360 -6396 l0 -5185 -7795 0 -7795 0 0
5185 0 5185 7795 0 7795 0 0 -5185z"/>
<path d="M15433 20411 c-251 -62 -445 -269 -492 -525 -8 -42 -11 -979 -11
-3213 0 -3521 -6 -3230 72 -3392 57 -119 169 -232 288 -289 47 -23 112 -49
145 -57 52 -13 524 -15 4055 -15 4434 0 4050 -6 4200 68 111 54 233 178 289
292 77 159 71 -138 69 3427 l-3 3198 -23 65 c-75 209 -223 357 -432 432 l-65
23 -1342 3 -1343 2 0 -1285 c0 -707 -2 -1285 -5 -1285 -3 0 -96 75 -208 168
-111 92 -210 173 -219 180 -15 12 -37 -2 -190 -129 -95 -78 -196 -162 -224
-186 l-51 -43 -224 185 c-123 102 -227 184 -231 182 -4 -1 -106 -84 -227 -184
l-221 -183 -220 183 c-121 100 -225 182 -230 182 -5 0 -105 -79 -221 -175
-117 -96 -216 -176 -221 -178 -4 -2 -8 575 -8 1282 l0 1286 -1317 -1 c-1227 0
-1323 -2 -1390 -18z"/>
</g>
</svg>
