<?xml version="1.0" standalone="no"?>
<!DOCTYPE svg PUBLIC "-//W3C//DTD SVG 20010904//EN"
 "http://www.w3.org/TR/2001/REC-SVG-20010904/DTD/svg10.dtd">
<svg version="1.0" xmlns="http://www.w3.org/2000/svg"
 width="3334.000000pt" height="3334.000000pt" viewBox="0 0 3334.000000 3334.000000"
 preserveAspectRatio="xMidYMid meet">

<g transform="translate(0.000000,3334.000000) scale(0.100000,-0.100000)"
fill="#000000" stroke="none">
<path d="M1890 33328 c-1006 -95 -1795 -897 -1880 -1913 -8 -93 -10 -4285 -8
-14830 3 -13988 4 -14705 21 -14800 86 -486 289 -875 628 -1200 332 -319 752
-512 1224 -565 130 -14 29446 -14 29586 1 546 55 1063 336 1408 764 247 306
410 703 450 1094 15 140 15 29456 1 29586 -53 472 -246 892 -565 1224 -325
339 -714 542 -1200 628 -95 17 -809 18 -14835 19 -8628 1 -14774 -2 -14830 -8z
m6429 -2039 c189 -48 365 -168 477 -326 52 -72 114 -202 140 -293 18 -63 19
-189 22 -3617 l2 -3553 135 0 135 0 0 3518 c0 2392 3 3538 11 3582 15 94 60
219 109 301 46 78 157 200 229 253 162 119 394 180 594 156 348 -42 618 -268
724 -607 l28 -88 3 -3557 2 -3558 135 0 135 0 2 3548 3 3547 23 80 c88 312
312 535 617 616 114 30 287 30 410 0 293 -71 524 -293 617 -591 l23 -75 3
-3562 2 -3563 140 0 140 0 0 3543 c0 3491 0 3543 20 3624 73 304 308 542 616
624 111 30 307 30 418 0 310 -82 539 -315 619 -629 l22 -87 0 -3640 c0 -3422
-1 -3649 -18 -3793 -68 -589 -263 -1115 -586 -1582 -422 -610 -1032 -1070
-1734 -1305 l-102 -34 -5 -8498 -5 -8498 -23 -100 c-59 -256 -155 -448 -314
-632 -155 -177 -349 -308 -574 -386 -167 -58 -256 -72 -454 -71 -153 0 -189 4
-287 27 -529 123 -909 507 -1040 1047 -17 72 -18 416 -20 8591 l-3 8517 -136
46 c-489 167 -904 422 -1278 786 -577 562 -918 1256 -1018 2070 -10 84 -13
843 -13 3800 l0 3695 23 78 c113 390 467 643 866 620 50 -2 124 -13 165 -24z
m16405 -213 c186 -51 353 -158 466 -299 59 -72 141 -234 167 -327 17 -62 18
-334 18 -6675 l0 -6610 -23 -130 c-67 -369 -203 -686 -422 -981 l-70 -94 0
-6310 c0 -4425 -3 -6340 -11 -6407 -35 -317 -168 -591 -396 -819 -400 -400
-1021 -507 -1532 -263 -153 73 -262 150 -381 269 -196 195 -305 395 -376 690
-18 72 -19 318 -21 6157 l-3 6081 -93 50 c-589 318 -1008 869 -1151 1512 -54
246 -51 5 -51 4165 0 4094 -2 3940 46 4370 178 1615 852 3249 1809 4385 142
168 406 438 568 580 379 334 835 614 1082 666 84 17 294 12 374 -10z"/>
</g>
</svg>
