<?xml version="1.0" standalone="no"?>
<!DOCTYPE svg PUBLIC "-//W3C//DTD SVG 20010904//EN"
 "http://www.w3.org/TR/2001/REC-SVG-20010904/DTD/svg10.dtd">
<svg version="1.0" xmlns="http://www.w3.org/2000/svg"
 width="3334.000000pt" height="3334.000000pt" viewBox="0 0 3334.000000 3334.000000"
 preserveAspectRatio="xMidYMid meet">

<g transform="translate(0.000000,3334.000000) scale(0.100000,-0.100000)"
fill="currentColor" stroke="none">
<path d="M16149 33329 c-3258 -101 -6375 -1138 -9044 -3007 -1075 -754 -2103
-1677 -2975 -2672 -1473 -1683 -2585 -3624 -3286 -5739 -798 -2405 -1034
-5016 -683 -7541 553 -3975 2516 -7600 5555 -10256 2520 -2202 5663 -3599
8974 -3988 1035 -122 2122 -148 3155 -76 3641 255 7078 1694 9830 4114 464
409 1032 973 1430 1421 1411 1588 2487 3381 3210 5349 535 1456 866 3005 975
4561 50 727 52 1562 4 2280 -212 3197 -1312 6202 -3214 8786 -1454 1975 -3362
3629 -5534 4798 -2566 1381 -5467 2062 -8397 1970z m-7324 -3534 c93 -25 213
-88 288 -150 115 -95 197 -218 249 -370 l23 -70 3 -3212 2 -3213 125 0 125 0
0 3186 c0 3589 -8 3247 82 3433 44 92 61 116 137 190 169 168 357 241 586 228
122 -7 195 -26 300 -77 192 -95 337 -270 402 -485 17 -57 18 -216 20 -3267 l3
-3208 125 0 125 0 2 3218 3 3217 28 80 c41 117 100 209 191 301 139 139 302
211 496 221 392 20 722 -239 796 -625 12 -63 14 -558 14 -3243 l0 -3169 120 0
120 0 0 3133 c0 2083 4 3162 10 3222 12 104 53 230 101 313 19 31 74 98 124
147 142 143 296 212 495 222 367 19 678 -205 782 -564 l23 -78 0 -3320 c0
-3157 -1 -3327 -18 -3455 -52 -381 -145 -688 -306 -1010 -155 -308 -328 -548
-576 -795 -339 -340 -719 -580 -1164 -735 l-136 -48 -5 -7678 c-5 -7244 -7
-7683 -23 -7749 -112 -452 -406 -781 -819 -916 -449 -146 -943 -23 -1269 317
-159 166 -247 329 -316 584 -17 62 -18 452 -23 7753 l-5 7688 -110 38 c-260
90 -492 204 -712 350 -207 138 -294 210 -479 395 -185 186 -259 275 -392 476
-250 375 -402 771 -485 1260 l-21 125 -3 3342 c-4 3632 -7 3401 50 3543 41
101 88 171 172 255 114 113 234 179 384 211 84 17 273 11 356 -11z m14699
-175 c318 -45 568 -267 659 -586 l22 -79 3 -5795 c2 -3954 0 -5852 -8 -5974
-12 -208 -42 -375 -101 -551 -70 -211 -189 -435 -320 -602 l-49 -63 0 -5723
c0 -5179 -2 -5732 -16 -5818 -75 -443 -392 -815 -819 -958 -245 -82 -534 -82
-777 -1 -401 135 -692 450 -806 875 l-27 100 -3 5492 -2 5493 -53 26 c-239
122 -499 334 -667 544 -245 308 -397 676 -439 1062 -15 132 -15 6855 -1 7088
135 2193 1259 4376 2705 5255 320 195 483 245 699 215z"/>
</g>
</svg>
