<?xml version="1.0" standalone="no"?>
<!DOCTYPE svg PUBLIC "-//W3C//DTD SVG 20010904//EN"
 "http://www.w3.org/TR/2001/REC-SVG-20010904/DTD/svg10.dtd">
<svg version="1.0" xmlns="http://www.w3.org/2000/svg"
 width="3334.000000pt" height="3334.000000pt" viewBox="0 0 3334.000000 3334.000000"
 preserveAspectRatio="xMidYMid meet">

<g transform="translate(0.000000,3334.000000) scale(0.100000,-0.100000)"
fill="#000000" stroke="none">
<path d="M19460 25869 c-436 -38 -860 -238 -1176 -553 -320 -321 -512 -732
-553 -1186 -14 -147 -14 -791 -1 -935 83 -895 756 -1604 1641 -1730 90 -13
667 -15 4403 -15 4730 0 4373 -5 4624 60 661 171 1191 703 1362 1365 57 220
62 295 57 844 -4 495 -4 496 -31 621 -68 315 -203 599 -396 835 -80 97 -260
268 -357 338 -286 204 -613 326 -963 357 -141 12 -8468 11 -8610 -1z m5506
-1664 c64 -19 104 -49 166 -126 94 -117 158 -285 158 -414 0 -75 -26 -182 -62
-255 -43 -89 -160 -205 -248 -247 -127 -60 -75 -58 -1280 -58 l-1105 0 -58 28
c-90 44 -193 183 -245 329 -34 97 -42 243 -17 338 51 198 220 362 418 405 96
21 2202 21 2273 0z"/>
<path d="M19740 20734 c-14 -2 -65 -9 -115 -15 -204 -26 -450 -102 -661 -205
-665 -324 -1125 -968 -1225 -1714 -19 -139 -16 -440 5 -580 37 -247 99 -446
206 -665 118 -241 260 -436 455 -623 366 -353 836 -567 1345 -612 90 -8 1252
-10 4105 -8 l3980 3 120 22 c492 90 880 289 1215 623 328 326 533 720 622
1195 20 104 23 152 22 370 0 273 -8 346 -65 565 -233 886 -995 1540 -1911
1639 -67 8 -1348 11 -4085 10 -2193 -1 -3999 -3 -4013 -5z m5135 -1669 c92
-24 174 -73 250 -150 220 -219 218 -562 -5 -785 -41 -41 -89 -77 -131 -97
-131 -65 -90 -63 -1216 -63 -703 0 -1039 3 -1075 11 -203 42 -387 225 -429
428 -18 87 -7 232 25 316 58 153 184 274 341 327 l80 28 1050 0 c912 0 1059
-2 1110 -15z"/>
<path d="M6895 18359 c-177 -19 -378 -89 -531 -185 -306 -192 -504 -474 -586
-832 l-22 -97 -3 -1330 -3 -1330 115 -33 c666 -188 1270 -679 1599 -1302 125
-238 225 -526 266 -770 6 -36 13 -75 15 -87 l5 -23 2964 0 2964 0 7 48 c91
637 445 1244 971 1668 253 204 673 415 962 484 l52 12 0 1307 c0 1450 2 1393
-66 1601 -142 430 -498 745 -962 852 l-97 23 -3785 1 c-2082 1 -3821 -2 -3865
-7z"/>
<path d="M19800 15603 c-601 -37 -1184 -335 -1565 -798 -140 -170 -264 -374
-340 -560 l-37 -89 25 -21 c186 -153 241 -202 320 -284 195 -204 342 -414 467
-666 160 -323 242 -620 270 -979 5 -71 10 -331 10 -577 l0 -449 4413 0 c2953
0 4441 3 4497 10 334 41 688 169 955 346 778 515 1152 1432 955 2337 -68 310
-230 648 -434 902 -351 437 -829 711 -1416 812 -100 17 -298 18 -4085 19
-2189 0 -4005 -1 -4035 -3z m5111 -1684 c95 -37 152 -73 214 -134 169 -169
210 -426 103 -645 -43 -89 -160 -205 -248 -247 -127 -60 -81 -58 -1215 -58
-981 0 -1043 1 -1100 18 -193 60 -340 209 -390 397 -19 72 -19 207 1 284 50
194 220 358 417 401 51 11 254 13 1107 12 l1045 -2 66 -26z"/>
<path d="M4870 13620 c-711 -64 -1269 -608 -1350 -1315 -8 -72 -10 -584 -8
-1825 l4 -1725 22 -97 c139 -607 583 -1042 1187 -1165 76 -15 139 -18 405 -18
288 1 324 2 417 23 470 103 861 412 1053 834 l35 77 4076 1 4076 0 51 -104
c204 -420 571 -705 1042 -808 97 -21 128 -23 420 -23 292 0 323 2 420 23 144
32 236 64 365 126 148 73 269 160 395 286 168 168 283 355 360 589 74 224 71
117 68 2096 l-3 1770 -27 106 c-73 293 -206 526 -417 732 -218 212 -487 350
-786 403 -145 26 -607 26 -750 0 -297 -53 -566 -190 -779 -396 -216 -209 -353
-447 -423 -739 -25 -103 -26 -118 -30 -498 l-5 -393 -3973 0 -3973 0 -5 373
c-4 327 -7 384 -26 471 -125 593 -562 1040 -1142 1167 -166 36 -475 49 -699
29z"/>
<path d="M18950 9920 l0 -550 658 0 c729 0 715 -1 843 66 385 203 385 765 0
968 -128 67 -114 66 -843 66 l-658 0 0 -550z"/>
<path d="M27220 10454 c-100 -26 -180 -73 -255 -148 -219 -220 -218 -552 1
-772 77 -78 175 -133 272 -153 36 -8 374 -11 1080 -11 1139 0 1081 -3 1213 66
128 67 236 206 274 350 75 287 -109 592 -402 668 -54 14 -186 16 -1094 15
-870 0 -1043 -3 -1089 -15z"/>
</g>
</svg>
