<?xml version="1.0" standalone="no"?>
<!DOCTYPE svg PUBLIC "-//W3C//DTD SVG 20010904//EN"
 "http://www.w3.org/TR/2001/REC-SVG-20010904/DTD/svg10.dtd">
<svg version="1.0" xmlns="http://www.w3.org/2000/svg"
 width="3334.000000pt" height="3334.000000pt" viewBox="0 0 3334.000000 3334.000000"
 preserveAspectRatio="xMidYMid meet">

<g transform="translate(0.000000,3334.000000) scale(0.100000,-0.100000)"
fill="#000000" stroke="none">
<path d="M16149 33329 c-3258 -101 -6375 -1138 -9044 -3007 -1075 -754 -2103
-1677 -2975 -2672 -1473 -1683 -2585 -3624 -3286 -5739 -798 -2405 -1034
-5016 -683 -7541 553 -3975 2516 -7600 5555 -10256 2520 -2202 5663 -3599
8974 -3988 1035 -122 2122 -148 3155 -76 3641 255 7078 1694 9830 4114 464
409 1032 973 1430 1421 1411 1588 2487 3381 3210 5349 535 1456 866 3005 975
4561 50 727 52 1562 4 2280 -212 3197 -1312 6202 -3214 8786 -1454 1975 -3362
3629 -5534 4798 -2566 1381 -5467 2062 -8397 1970z m770 -5175 c336 -49 648
-190 903 -408 76 -65 10038 -10693 10132 -10810 485 -601 523 -1455 92 -2101
-316 -473 -834 -761 -1403 -782 -462 -17 -896 134 -1233 430 -47 40 -287 290
-535 555 l-450 481 -5 -4797 -5 -4797 -23 -83 c-75 -279 -261 -495 -518 -602
-166 -69 -20 -64 -1989 -68 -1237 -2 -1809 0 -1875 8 -202 23 -376 107 -521
250 -117 116 -183 229 -237 410 -15 51 -17 272 -22 2730 -6 2902 -3 2714 -59
2982 -156 745 -630 1394 -1298 1776 -293 167 -635 281 -983 328 -170 23 -502
23 -670 0 -585 -79 -1100 -327 -1517 -730 -434 -418 -695 -923 -796 -1538
l-21 -133 -6 -2680 -5 -2680 -28 -90 c-107 -342 -389 -581 -737 -624 -57 -8
-659 -11 -1830 -11 -1862 0 -1851 0 -1990 48 -280 97 -489 323 -572 617 l-23
80 -5 4683 -5 4683 -240 -258 c-546 -585 -643 -670 -922 -803 -365 -175 -814
-217 -1208 -115 -623 162 -1116 658 -1274 1283 -58 228 -67 548 -21 776 56
285 191 570 368 783 106 127 9996 10682 10087 10765 258 235 578 387 930 442
125 19 383 20 514 0z"/>
</g>
</svg>
