<?xml version="1.0" standalone="no"?>
<!DOCTYPE svg PUBLIC "-//W3C//DTD SVG 20010904//EN"
 "http://www.w3.org/TR/2001/REC-SVG-20010904/DTD/svg10.dtd">
<svg version="1.0" xmlns="http://www.w3.org/2000/svg"
 width="3334.000000pt" height="3334.000000pt" viewBox="0 0 3334.000000 3334.000000"
 preserveAspectRatio="xMidYMid meet">

<g transform="translate(0.000000,3334.000000) scale(0.100000,-0.100000)"
fill="#000000" stroke="none">
<path d="M7180 23443 c-173 -13 -387 -57 -555 -115 -683 -233 -1227 -818
-1404 -1510 -66 -258 -65 -240 -69 -974 l-3 -671 98 -12 c507 -62 981 -257
1383 -570 116 -90 325 -295 426 -417 268 -325 459 -708 554 -1109 69 -292 80
-446 80 -1162 l0 -563 8980 0 8980 0 0 633 c0 492 3 660 15 757 60 518 240
961 564 1385 97 128 327 359 458 463 337 265 730 451 1143 541 86 18 307 51
346 51 14 0 15 70 11 643 -5 709 -7 738 -72 992 -101 392 -299 733 -596 1022
-329 322 -716 514 -1204 600 -95 17 -581 18 -9595 19 -5222 0 -9515 -1 -9540
-3z"/>
<path d="M4715 19558 c-557 -56 -1077 -334 -1441 -770 -535 -640 -644 -1552
-274 -2306 169 -345 430 -645 737 -847 l43 -27 3 -2362 c3 -2182 4 -2366 20
-2429 29 -116 66 -219 111 -303 265 -500 845 -733 1378 -554 362 121 642 421
746 797 l27 98 3 2375 2 2376 32 18 c81 48 243 181 343 281 407 407 626 932
628 1505 1 348 -67 647 -217 955 -393 804 -1252 1283 -2141 1193z"/>
<path d="M28195 19560 c-1017 -103 -1820 -904 -1926 -1921 -18 -171 -7 -443
25 -612 83 -438 292 -825 617 -1143 95 -92 275 -238 334 -271 13 -8 15 -307
18 -2373 3 -2656 -5 -2404 78 -2617 76 -195 253 -415 424 -528 394 -261 882
-261 1280 0 80 52 261 234 314 315 93 143 158 314 180 474 8 53 11 802 11
2401 0 1864 2 2324 13 2328 38 15 237 176 336 271 191 187 323 369 437 601
145 297 214 600 214 940 0 334 -73 646 -220 943 -317 638 -902 1066 -1610
1177 -125 20 -400 27 -525 15z"/>
<path d="M7715 15419 c-250 -37 -474 -149 -653 -329 -448 -447 -444 -1173 8
-1621 165 -163 379 -273 614 -314 80 -13 999 -15 8980 -15 9710 0 8970 -4
9152 56 571 190 902 790 754 1369 -107 419 -435 736 -870 841 -72 18 -415 19
-9000 20 -5039 1 -8951 -2 -8985 -7z"/>
<path d="M7741 12669 c-448 -52 -841 -382 -965 -811 -39 -136 -49 -225 -43
-376 7 -173 36 -293 110 -446 163 -338 470 -569 847 -637 63 -12 1518 -14
8980 -14 8447 0 8909 1 8991 18 254 51 458 162 629 343 428 451 419 1153 -21
1593 -157 157 -346 261 -574 314 l-90 22 -8895 1 c-4919 1 -8928 -2 -8969 -7z"/>
</g>
</svg>
