<?xml version="1.0" standalone="no"?>
<!DOCTYPE svg PUBLIC "-//W3C//DTD SVG 20010904//EN"
 "http://www.w3.org/TR/2001/REC-SVG-20010904/DTD/svg10.dtd">
<svg version="1.0" xmlns="http://www.w3.org/2000/svg"
 width="3334.000000pt" height="3334.000000pt" viewBox="0 0 3334.000000 3334.000000"
 preserveAspectRatio="xMidYMid meet">

<g transform="translate(0.000000,3334.000000) scale(0.100000,-0.100000)"
fill="#000000" stroke="none">
<path d="M16225 30553 c-3555 -119 -6867 -1554 -9375 -4063 -1363 -1362 -2417
-2970 -3115 -4750 -750 -1911 -1066 -3993 -919 -6055 234 -3300 1626 -6381
3949 -8744 2343 -2382 5418 -3827 8740 -4105 431 -36 558 -41 1160 -41 601 0
721 4 1165 41 4676 383 8863 3140 11091 7303 885 1653 1430 3503 1583 5371 37
444 41 564 41 1165 0 602 -5 729 -41 1160 -211 2525 -1096 4915 -2578 6965
-460 636 -958 1215 -1527 1775 -2364 2324 -5451 3718 -8749 3950 -433 30
-1021 42 -1425 28z m970 -2183 c1661 -79 3202 -475 4658 -1197 960 -476 1793
-1039 2617 -1768 197 -175 763 -742 942 -945 1300 -1471 2183 -3154 2637
-5030 149 -615 241 -1203 297 -1905 21 -272 30 -1129 15 -1432 -110 -2135
-766 -4132 -1936 -5893 -1143 -1719 -2722 -3112 -4560 -4020 -1463 -723 -2976
-1117 -4618 -1201 -303 -15 -1160 -6 -1432 15 -1111 89 -2100 296 -3070 643
-1440 515 -2703 1264 -3865 2291 -203 179 -770 745 -945 942 -729 824 -1292
1657 -1768 2617 -668 1347 -1059 2777 -1176 4303 -49 632 -38 1430 29 2092
224 2217 1095 4348 2488 6087 305 381 523 624 881 982 579 579 1112 1017 1781
1464 1795 1201 3863 1872 6035 1958 190 8 804 6 990 -3z"/>
<path d="M12112 22104 c-18 -9 -43 -31 -55 -48 l-22 -31 -5 -769 -5 -769
-1815 -1213 c-1482 -990 -1826 -1224 -1873 -1274 -63 -67 -118 -166 -141 -257
-32 -121 -15 -287 40 -396 15 -28 299 -459 632 -957 425 -635 622 -920 659
-956 86 -83 216 -142 350 -159 70 -9 194 11 274 44 41 17 408 257 973 635 500
334 912 604 916 599 4 -4 179 -265 388 -579 l382 -570 -185 -1989 c-183 -1968
-185 -1990 -171 -2072 37 -217 197 -398 411 -466 l70 -22 870 0 870 0 80 28
c202 72 344 227 390 427 11 46 245 2500 245 2563 0 4 1186 7 2635 7 2628 0
2635 0 2635 -20 0 -33 219 -2389 230 -2479 33 -253 208 -453 450 -512 81 -20
1729 -20 1810 0 207 50 381 222 435 427 8 32 15 92 15 134 0 41 -122 1388
-271 2993 l-271 2918 198 476 c218 524 223 541 189 644 -24 72 -110 159 -179
182 -57 19 -124 22 -179 6 -21 -6 -173 -100 -338 -210 l-299 -199 -3803 0
-3803 0 -1282 1920 c-706 1056 -1294 1927 -1308 1936 -36 24 -103 28 -142 8z"/>
</g>
</svg>
