<?xml version="1.0" standalone="no"?>
<!DOCTYPE svg PUBLIC "-//W3C//DTD SVG 20010904//EN"
 "http://www.w3.org/TR/2001/REC-SVG-20010904/DTD/svg10.dtd">
<svg version="1.0" xmlns="http://www.w3.org/2000/svg"
 width="3334.000000pt" height="3334.000000pt" viewBox="0 0 3334.000000 3334.000000"
 preserveAspectRatio="xMidYMid meet">

<g transform="translate(0.000000,3334.000000) scale(0.100000,-0.100000)"
fill="#000000" stroke="none">
<path d="M9070 29169 c-704 -80 -1322 -573 -1560 -1245 -45 -129 -78 -271 -95
-414 -13 -110 -15 -1398 -15 -10500 0 -9102 2 -10390 15 -10500 51 -433 235
-811 544 -1121 349 -348 828 -549 1312 -549 l109 0 0 -218 c0 -261 7 -290 84
-368 92 -91 -37 -84 1526 -84 1534 0 1428 -5 1512 69 24 21 54 60 68 87 24 47
25 56 28 282 l3 232 4064 0 4064 0 3 -227 c3 -207 5 -232 24 -274 28 -61 85
-116 149 -145 l52 -24 1399 2 1399 3 45 27 c61 36 104 83 132 143 21 47 23 66
26 273 l4 222 101 0 c466 0 928 187 1275 514 318 300 520 695 577 1125 13 91
15 1596 15 10528 0 9206 -2 10435 -15 10536 -80 613 -469 1158 -1025 1437
-191 96 -390 156 -608 185 -99 13 -1018 15 -7625 14 -4132 -1 -7546 -5 -7587
-10z m14952 -1490 c166 -65 298 -180 367 -321 81 -165 76 -77 76 -1318 0
-1232 4 -1155 -70 -1305 -85 -173 -238 -296 -432 -346 -75 -19 -176 -19 -7298
-19 -7155 0 -7223 0 -7299 20 -179 45 -344 177 -424 337 -76 155 -73 91 -70
1348 l3 1120 32 82 c81 210 233 351 448 414 57 17 409 18 7330 16 l7270 -2 67
-26z m448 -12881 c0 -5239 -4 -8104 -10 -8143 -15 -89 -61 -175 -128 -236 -68
-62 -133 -94 -222 -108 -91 -15 -14799 -15 -14889 0 -136 22 -255 111 -314
236 l-32 68 -3 8133 -2 8132 7800 0 7800 0 0 -8082z"/>
<path d="M10745 26703 c-270 -60 -483 -262 -552 -523 -23 -85 -23 -252 0 -340
58 -224 234 -415 456 -494 81 -29 95 -31 226 -31 127 0 147 3 220 28 221 78
387 251 456 477 18 59 23 99 24 185 0 134 -13 191 -72 315 -39 82 -58 107
-137 185 -147 146 -294 206 -497 204 -57 -1 -113 -3 -124 -6z"/>
<path d="M12992 26690 c-307 -81 -522 -360 -522 -679 0 -114 18 -197 64 -294
69 -150 182 -265 332 -338 342 -167 749 -29 929 313 101 191 101 445 0 636
-97 185 -257 313 -453 363 -100 25 -250 25 -350 -1z"/>
<path d="M16065 21320 c-1702 -72 -3278 -884 -4325 -2230 -315 -405 -614 -924
-800 -1390 -467 -1165 -542 -2473 -210 -3682 548 -1997 2144 -3565 4145 -4071
361 -91 678 -142 1060 -168 215 -15 736 -6 940 16 725 77 1359 260 1995 576
430 214 778 441 1155 755 167 139 560 532 699 699 306 368 543 730 751 1146
l95 189 343 0 c389 0 419 4 551 72 115 60 218 164 273 278 78 159 73 24 73
2042 0 2010 4 1873 -71 2028 -56 114 -171 230 -280 283 -136 67 -156 70 -544
75 l-350 4 -77 156 c-356 727 -888 1396 -1523 1917 -1097 900 -2484 1364
-3900 1305z m527 -1470 c1339 -92 2545 -790 3299 -1912 216 -321 380 -657 504
-1033 154 -462 218 -861 218 -1355 0 -268 -9 -399 -43 -635 -102 -700 -385
-1380 -808 -1944 -466 -621 -1078 -1101 -1782 -1399 -1045 -441 -2231 -452
-3280 -30 -867 349 -1609 981 -2093 1783 -758 1256 -821 2829 -165 4139 98
197 144 276 274 471 735 1109 1954 1820 3284 1914 171 12 419 12 592 1z"/>
<path d="M16100 18954 c-721 -52 -1377 -306 -1935 -750 -137 -109 -404 -376
-511 -509 -348 -436 -570 -897 -688 -1425 -60 -270 -70 -379 -71 -730 0 -346
6 -419 60 -685 73 -361 217 -740 401 -1051 137 -233 342 -357 589 -357 108 0
194 21 295 69 74 36 111 73 2061 2023 l1987 1986 41 85 c54 112 74 208 68 326
-10 168 -91 343 -210 449 -103 94 -394 248 -657 348 -379 145 -745 215 -1160
221 -118 2 -240 2 -270 0z"/>
</g>
</svg>
